<svg width="512" height="512" xmlns="http://www.w3.org/2000/svg">

 <g>
  <title>background</title>
  <rect fill="none" id="canvas_background" height="402" width="582" y="-1" x="-1"/>
 </g>
 <g>
  <title>Layer 1</title>
  <path fill="#ccdbe5" stroke="#ccdbe5" id="svg_2" d="m349.1337,115.2913c0,-26.4539 -21.5235,-47.9773 -47.98011,-47.9773c-26.45388,0 -47.97709,21.5234 -47.97709,47.9773c0,26.4592 21.52321,47.9825 47.97709,47.9825c26.45661,0 47.98011,-21.5233 47.98011,-47.9825zm-85.36099,0c0,-20.6127 16.76828,-37.3811 37.38088,-37.3811c20.6128,0 37.38392,16.7684 37.38392,37.3811c0,20.6126 -16.77112,37.3863 -37.38392,37.3863c-20.6126,0 -37.38088,-16.7737 -37.38088,-37.3863z"/>
  <path fill="#ccdbe5" stroke="#ccdbe5" id="svg_3" d="m319.0452,115.2913c0,-8.0052 -5.3252,-14.7196 -12.5933,-16.9934l0,-12.4769c0,-2.9287 -2.37231,-5.2979 -5.29831,-5.2979c-2.92568,0 -5.29779,2.3692 -5.29779,5.2979l0,12.4769c-7.26739,2.2738 -12.59069,8.9882 -12.59069,16.9934c0,9.8664 8.02468,17.8913 17.88849,17.8913c9.8641,0 17.8916,-8.0249 17.8916,-17.8913zm-25.1839,0c0,-4.0202 3.27249,-7.2898 7.29229,-7.2898c4.02292,0 7.29542,3.2696 7.29542,7.2898c0,4.02 -3.2725,7.2954 -7.29542,7.2954c-4.0198,0 -7.29229,-3.2754 -7.29229,-7.2954z"/>
  <path fill="#ccdbe5" stroke="#ccdbe5" id="svg_4" d="m325.06741,203.5988l0,-25.90919c25.095,-9.6521 42.98188,-33.94642 42.98188,-62.39831c0,-36.8846 -30.0084,-66.8929 -66.8957,-66.8929c-35.09609,0 -63.9075,27.1849 -66.62429,61.5948l-11.7466,0l0,-7.3416c0,-2.4473 -1.6739,-4.5736 -4.0515,-5.1482l-90.63811,-21.9475c-1.58059,-0.4036 -3.24929,-0.0204 -4.52209,0.983c-1.2779,1.0038 -2.0231,2.5403 -2.0231,4.1651l0,69.1797c0,1.62471 0.7452,3.1615 2.0231,4.1649c0.9417,0.7402 2.0979,1.13299 3.2751,1.13299c0.4166,0 0.8355,-0.04609 1.24699,-0.1499l90.63811,-21.9527c2.3776,-0.57409 4.0515,-2.70079 4.0515,-5.14809l0,-7.3417l11.7466,0c2.06401,26.1425 19.1965,48.05561 42.71341,57.10041l0,25.90919c-37.60981,10.21739 -65.38721,44.56529 -65.38721,85.3636l0,140.80191l0,28.53919c0,2.9281 2.37221,5.29809 5.29781,5.29809l168.0008,0c2.92569,0 5.29798,-2.36999 5.29798,-5.29809l0,-28.53919l0,-140.80191c0,-40.79831 -27.77689,-75.14509 -65.38468,-85.3636zm-112.88092,-79.8379l-80.04249,19.38661l0,-55.70711l80.04249,19.3811l0,16.9394zm32.67031,-8.4696c0,-31.0433 25.2538,-56.2969 56.29679,-56.2969c31.0434,0 56.2995,25.2536 56.2995,56.2969c0,31.0432 -25.2561,56.297 -56.2995,56.297c-31.04299,0 -56.29679,-25.2538 -56.29679,-56.297zm69.61439,65.5542l0,20.5734c-4.1141,-0.5881 -8.28528,-0.9968 -12.55929,-0.9968l-1.51349,0c-4.27442,0 -8.4455,0.4087 -12.55982,0.9968l0,-20.5734c4.30512,0.8731 8.75662,1.3389 13.315,1.3389c4.55991,0 9.012,-0.4658 13.3176,-1.3389zm-14.07278,30.1726l1.51349,0c41.1911,0 74.93161,32.139 77.67569,72.64651l-156.86789,0c2.7442,-40.50751 36.48761,-72.64651 77.67871,-72.64651zm79.45779,241.9873l-157.40469,0l0,-17.94311l157.40469,0l0,17.94311zm0,-28.53909l-157.40469,0l0,-130.20581l157.40469,0l0,130.20581z"/>
  <path fill="#ccdbe5" stroke="#ccdbe5" id="svg_5" d="m266.55591,396.29459l69.19809,0c2.92569,0 5.298,-2.36979 5.298,-5.29798l0,-69.20071c0,-2.92819 -2.37231,-5.2981 -5.298,-5.2981l-69.19809,0c-0.6893,0 -1.37601,0.14041 -2.02292,0.40851c-1.29688,0.53668 -2.32938,1.5687 -2.86649,2.86539c-0.26779,0.64749 -0.40841,1.33499 -0.40841,2.0242l0,69.20071c0,2.92819 2.3721,5.29798 5.29782,5.29798zm5.29828,-61.7074l25.5538,25.55752c1.03461,1.0347 2.39011,1.55219 3.74561,1.55219c1.3558,0 2.7113,-0.51749 3.74591,-1.55219c2.06948,-2.06951 2.06948,-5.42221 0,-7.4916l-25.555,-25.55912l51.11158,0l0,58.6045l-27.19068,0l-17.07962,-16.1941c-2.12128,-2.0129 -5.47659,-1.9248 -7.48929,0.19651c-2.01239,2.12649 -1.9245,5.47931 0.1994,7.49179l8.9708,8.5058l-16.01251,0l0,-51.1113z"/>
 </g>
</svg>