<svg width="32" height="32" xmlns="http://www.w3.org/2000/svg">

 <g>
  <title>background</title>
  <rect fill="none" id="canvas_background" height="402" width="582" y="-1" x="-1"/>
 </g>
 <g>
  <title>Layer 1</title>
  <circle fill="#ccdbe5" id="svg_2" r="2" cy="13" cx="13"/>
  <path fill="#ccdbe5" id="svg_3" d="m30,24l-4,0l0,-17c0,-0.6 -0.4,-1 -1,-1l-17,0l0,-4c0,-0.6 -0.4,-1 -1,-1s-1,0.4 -1,1l0,4l-4,0c-0.6,0 -1,0.4 -1,1s0.4,1 1,1l4,0l0,17c0,0.6 0.4,1 1,1l17,0l0,4c0,0.6 0.4,1 1,1s1,-0.4 1,-1l0,-4l4,0c0.6,0 1,-0.4 1,-1s-0.4,-1 -1,-1zm-6,-8.6l-3.9,2.4l-3.5,-2.6c-0.3,-0.2 -0.7,-0.3 -1.1,-0.1l-7.5,4.2l0,-11.3l16,0l0,7.4z"/>
 </g>
</svg>